<svg width="16" height="16" viewBox="0 0 16 16" fill="none" xmlns="http://www.w3.org/2000/svg">
<path fill-rule="evenodd" clip-rule="evenodd" d="M3.97675 2.24948C4.2016 2.02463 4.2016 1.66008 3.97675 1.43524C3.75191 1.21039 3.38736 1.21039 3.16251 1.43524L1.43524 3.16251C1.21039 3.38736 1.21039 3.75191 1.43524 3.97675C1.66008 4.2016 2.02463 4.2016 2.24948 3.97675L3.97675 2.24948ZM12.0374 1.43524C11.8125 1.21039 11.448 1.21039 11.2231 1.43524C10.9983 1.66008 10.9983 2.02463 11.2231 2.24948L12.9504 3.97675C13.1752 4.2016 13.5398 4.2016 13.7646 3.97675C13.9895 3.75191 13.9895 3.38736 13.7646 3.16251L12.0374 1.43524ZM7.59995 3.56967C5.0561 3.56967 2.99389 5.63187 2.99389 8.17573C2.99389 10.7196 5.0561 12.7818 7.59995 12.7818C10.1438 12.7818 12.206 10.7196 12.206 8.17573C12.206 5.63187 10.1438 3.56967 7.59995 3.56967ZM1.84238 8.17573C1.84238 4.99591 4.42013 2.41815 7.59995 2.41815C10.7798 2.41815 13.3575 4.99591 13.3575 8.17573C13.3575 11.3555 10.7798 13.9333 7.59995 13.9333C4.42013 13.9333 1.84238 11.3555 1.84238 8.17573ZM7.59992 4.72116C7.9179 4.72116 8.17567 4.97893 8.17567 5.29691V7.86767L9.64652 8.84813C9.91111 9.02449 9.98264 9.38195 9.80628 9.64655C9.62992 9.91114 9.27245 9.98267 9.00786 9.8063L7.5368 8.82579C7.37914 8.7206 7.24966 8.57798 7.16027 8.41085C7.0709 8.24375 7.02415 8.05717 7.02416 7.86767V5.29691C7.02416 4.97893 7.28193 4.72116 7.59992 4.72116Z" fill="#222227"/>
</svg>
