<svg width="25" height="25" viewBox="0 0 25 25" fill="none" xmlns="http://www.w3.org/2000/svg">
<path d="M12.3262 3.92187C17.4845 3.92187 21.667 8.10344 21.667 13.2617C21.6668 18.4198 17.4843 22.6016 12.3262 22.6016C7.16826 22.6013 2.98656 18.4196 2.98633 13.2617C2.98633 8.1036 7.16811 3.92214 12.3262 3.92187ZM12.3262 5.78906C8.19977 5.78932 4.85449 9.13525 4.85449 13.2617C4.85472 17.388 8.19991 20.7331 12.3262 20.7334C16.4527 20.7334 19.7986 17.3881 19.7988 13.2617C19.7988 9.13509 16.4528 5.78906 12.3262 5.78906ZM12.3281 7.65723C12.8439 7.65723 13.2626 8.07504 13.2627 8.59082L13.2627 12.7607L15.6484 14.3516C16.0776 14.6376 16.1932 15.2173 15.9072 15.6465C15.6211 16.0757 15.0415 16.1923 14.6123 15.9062L12.2266 14.3154C11.9709 14.1448 11.7602 13.9136 11.6152 13.6426C11.4702 13.3715 11.3945 13.0681 11.3945 12.7607L11.3945 8.59082C11.3946 8.07516 11.8125 7.65742 12.3281 7.65723ZM5.13086 2.32715C5.49556 1.96282 6.08652 1.96272 6.45117 2.32715C6.81592 2.69189 6.81592 3.28369 6.45117 3.64844L3.64941 6.4502C3.28467 6.81494 2.69287 6.81494 2.32812 6.4502C1.96359 6.08543 1.96345 5.49358 2.32812 5.12891L5.13086 2.32715ZM18.2061 2.32715C18.5708 1.96243 19.1626 1.96245 19.5273 2.32715L22.3291 5.12891C22.6938 5.49365 22.6938 6.08545 22.3291 6.4502C21.9644 6.81494 21.3726 6.81494 21.0078 6.4502L18.2061 3.64844C17.8414 3.28369 17.8413 2.69188 18.2061 2.32715Z" fill="#222227"/>
</svg>
