<svg width="16" height="16" viewBox="0 0 16 16" fill="none" xmlns="http://www.w3.org/2000/svg">
<path d="M7.59998 2.41797C10.7798 2.41797 13.3578 4.99596 13.3578 8.17578C13.3576 11.3554 10.7797 13.9326 7.59998 13.9326C4.42029 13.9326 1.84236 11.3554 1.84216 8.17578C1.84216 4.99597 4.42017 2.41799 7.59998 2.41797ZM7.59998 3.56934C5.05613 3.56935 2.99353 5.63194 2.99353 8.17578C2.99373 10.7195 5.05626 12.7812 7.59998 12.7812C10.1437 12.7812 12.2062 10.7195 12.2064 8.17578C12.2064 5.63192 10.1438 3.56934 7.59998 3.56934ZM7.59998 4.7207C7.91796 4.7207 8.17615 4.97889 8.17615 5.29688V7.86719L9.64685 8.84766C9.91135 9.02404 9.98237 9.38193 9.80603 9.64648C9.6296 9.91081 9.27267 9.98193 9.00818 9.80566L7.5365 8.8252C7.37901 8.72003 7.24984 8.57715 7.16052 8.41016C7.07122 8.24311 7.02379 8.05661 7.0238 7.86719V5.29688C7.0238 4.97889 7.28199 4.7207 7.59998 4.7207ZM3.16248 1.43457C3.38729 1.2099 3.75212 1.20989 3.97693 1.43457C4.20173 1.65937 4.20164 2.02417 3.97693 2.24902L2.24939 3.97656C2.02453 4.20128 1.65974 4.20137 1.43494 3.97656C1.21025 3.75175 1.21026 3.38693 1.43494 3.16211L3.16248 1.43457ZM11.223 1.43457C11.4478 1.20988 11.8127 1.20991 12.0375 1.43457L13.765 3.16211C13.9897 3.38693 13.9897 3.75175 13.765 3.97656C13.5402 4.20137 13.1754 4.20129 12.9506 3.97656L11.223 2.24902C10.9983 2.02416 10.9982 1.65937 11.223 1.43457Z" fill="#222227"/>
</svg>
