<svg width="16" height="16" viewBox="0 0 16 16" fill="none" xmlns="http://www.w3.org/2000/svg">
<path fill-rule="evenodd" clip-rule="evenodd" d="M7.34599 1.74712C7.53855 1.65303 7.76897 1.67334 7.9412 1.79956L11.595 4.47741C11.7403 4.5839 11.8248 4.75183 11.8223 4.92929C11.8199 5.10675 11.7307 5.27238 11.5825 5.37496L8.36856 7.59959L11.5825 9.82421C11.7307 9.9268 11.8199 10.0924 11.8223 10.2699C11.8248 10.4473 11.7403 10.6153 11.595 10.7218L7.9412 13.3996C7.76897 13.5258 7.53855 13.5461 7.34599 13.4521C7.15344 13.358 7.0318 13.1657 7.0318 12.9553V8.52485L4.27488 10.4331C4.01873 10.6104 3.66398 10.5512 3.48254 10.3009C3.3011 10.0506 3.36167 9.70397 3.61782 9.52667L6.40193 7.59959L3.61782 5.6725C3.36167 5.4952 3.3011 5.14855 3.48254 4.89824C3.66398 4.64793 4.01873 4.58875 4.27488 4.76605L7.0318 6.67432V2.24389C7.0318 2.03351 7.15344 1.8412 7.34599 1.74712ZM8.16855 8.82239L10.2892 10.2903L8.16855 11.8445V8.82239ZM8.16855 6.37678V3.3547L10.2892 4.90891L8.16855 6.37678Z" fill="#222227"/>
</svg>
