<svg width="25" height="25" viewBox="0 0 25 25" fill="none" xmlns="http://www.w3.org/2000/svg">
<path fill-rule="evenodd" clip-rule="evenodd" d="M11.9174 2.83511C12.2298 2.6825 12.6036 2.71543 12.883 2.92019L18.8102 7.26418C19.0459 7.43692 19.1829 7.70933 19.1789 7.99721C19.1749 8.28509 19.0303 8.55376 18.7899 8.72018L13.5762 12.3289L18.7899 15.9377C19.0303 16.1041 19.1749 16.3728 19.1789 16.6607C19.1829 16.9486 19.0459 17.221 18.8102 17.3937L12.883 21.7377C12.6036 21.9425 12.2298 21.9754 11.9174 21.8228C11.6051 21.6702 11.4078 21.3582 11.4078 21.0169V13.8299L6.93549 16.9255C6.51996 17.2131 5.9445 17.1171 5.65017 16.711C5.35584 16.305 5.45409 15.7427 5.86962 15.455L10.386 12.3289L5.86962 9.20284C5.45409 8.91522 5.35584 8.35289 5.65017 7.94684C5.9445 7.54079 6.51996 7.44479 6.93549 7.73241L11.4078 10.828V3.64097C11.4078 3.29971 11.6051 2.98773 11.9174 2.83511ZM13.2518 14.3126L16.6919 16.6937L13.2518 19.215V14.3126ZM13.2518 10.3453V5.44292L16.6919 7.96415L13.2518 10.3453Z" fill="#222227"/>
</svg>
