<svg width="16" height="16" viewBox="0 0 16 16" fill="none" xmlns="http://www.w3.org/2000/svg">
<path fill-rule="evenodd" clip-rule="evenodd" d="M7.34587 1.74712C7.53842 1.65303 7.76885 1.67334 7.94108 1.79956L11.5949 4.47741C11.7402 4.5839 11.8247 4.75183 11.8222 4.92929C11.8197 5.10675 11.7306 5.27238 11.5824 5.37496L8.36844 7.59959L11.5824 9.82421C11.7306 9.9268 11.8197 10.0924 11.8222 10.2699C11.8247 10.4473 11.7402 10.6153 11.5949 10.7218L7.94108 13.3996C7.76885 13.5258 7.53842 13.5461 7.34587 13.4521C7.15331 13.358 7.03168 13.1657 7.03168 12.9553V8.52485L4.27476 10.4331C4.0186 10.6104 3.66386 10.5512 3.48242 10.3009C3.30098 10.0506 3.36154 9.70397 3.6177 9.52667L6.40181 7.59959L3.6177 5.6725C3.36154 5.4952 3.30098 5.14855 3.48242 4.89824C3.66386 4.64793 4.0186 4.58875 4.27476 4.76605L7.03168 6.67432V2.24389C7.03168 2.03351 7.15331 1.8412 7.34587 1.74712ZM8.16843 8.82239L10.2891 10.2903L8.16843 11.8445V8.82239ZM8.16843 6.37678V3.3547L10.2891 4.90891L8.16843 6.37678Z" fill="#222227"/>
</svg>
