<svg width="16" height="16" viewBox="0 0 16 16" fill="none" xmlns="http://www.w3.org/2000/svg">
<path fill-rule="evenodd" clip-rule="evenodd" d="M4.62251 4.41871C5.54149 4.03693 6.527 3.84103 7.52213 3.84233L7.52301 3.84233C9.61614 3.84233 11.5093 4.69213 12.8786 6.06722C13.1418 6.3316 13.5696 6.3325 13.8339 6.06924C14.0983 5.80598 14.0992 5.37824 13.836 5.11386C12.2236 3.49464 9.99014 2.49134 7.52345 2.49122L7.52389 2.49122L7.52301 3.16677V2.49122L7.52345 2.49122C6.34998 2.48975 5.18784 2.72078 4.10416 3.17098C3.02035 3.62124 2.03649 4.28179 1.20943 5.11447C0.946508 5.37918 0.947958 5.80692 1.21267 6.06985C1.47738 6.33277 1.90512 6.33132 2.16805 6.06661C2.86931 5.36057 3.70353 4.80048 4.62251 4.41871ZM5.54962 6.77783C6.17314 6.51164 6.84421 6.37482 7.52217 6.37566H7.52385C8.20181 6.37482 8.87288 6.51164 9.49639 6.77783C10.1199 7.04403 10.6829 7.43405 11.1512 7.92426C11.4089 8.19404 11.8366 8.20381 12.1063 7.94608C12.3761 7.68835 12.3859 7.26073 12.1281 6.99095C11.5335 6.36848 10.8186 5.87323 10.0269 5.53523C9.23541 5.19733 8.38359 5.02359 7.52301 5.02455L7.52385 5.02455L7.52301 5.70011L7.52217 5.02455L7.52301 5.02455C6.66242 5.02359 5.8106 5.19733 5.01912 5.53523C4.22739 5.87323 3.51253 6.36848 2.91786 6.99095C2.66014 7.26073 2.66991 7.68835 2.93968 7.94608C3.20946 8.20381 3.63709 8.19404 3.89481 7.92426C4.36313 7.43405 4.92611 7.04403 5.54962 6.77783ZM6.49431 9.13045C6.81722 8.98411 7.16772 8.9086 7.52225 8.90899L7.52301 8.909C8.26969 8.909 8.93916 9.2369 9.39654 9.75818C9.6426 10.0386 10.0694 10.0665 10.3499 9.82044C10.6303 9.57438 10.6582 9.14755 10.4121 8.86709C9.70933 8.06607 8.67528 7.558 7.52339 7.55788L7.52376 7.55788L7.52301 8.23344V7.55788H7.52339C6.97612 7.55732 6.43507 7.67391 5.9366 7.89981C5.43802 8.12577 4.99359 8.45585 4.63319 8.86787C4.38755 9.14869 4.41607 9.57548 4.6969 9.82112C4.97773 10.0668 5.40451 10.0382 5.65015 9.75741C5.88356 9.49057 6.1714 9.27679 6.49431 9.13045ZM8.44434 11.1468C8.44434 11.6131 8.06627 11.9912 7.59989 11.9912C7.13352 11.9912 6.75545 11.6131 6.75545 11.1468C6.75545 10.6804 7.13352 10.3023 7.59989 10.3023C8.06627 10.3023 8.44434 10.6804 8.44434 11.1468Z" fill="#222227"/>
</svg>
