<svg width="25" height="25" viewBox="0 0 25 25" fill="none" xmlns="http://www.w3.org/2000/svg">
<path d="M12.3252 16.7129C13.0817 16.7129 13.6953 17.3265 13.6953 18.083C13.6952 18.8394 13.0816 19.4521 12.3252 19.4521C11.5687 19.4521 10.9552 18.8394 10.9551 18.083C10.9551 17.3265 11.5686 16.7129 12.3252 16.7129ZM12.2012 12.2607C14.0698 12.2609 15.7476 13.0853 16.8877 14.3848C17.2866 14.8396 17.2416 15.5315 16.7871 15.9307C16.3322 16.3298 15.6394 16.285 15.2402 15.8301C14.4983 14.9845 13.4123 14.4522 12.2012 14.4521H12.1992C11.6243 14.4516 11.0559 14.5742 10.5322 14.8115C10.0084 15.0489 9.54172 15.3962 9.16309 15.8291C8.76464 16.2846 8.07176 16.331 7.61621 15.9326C7.16071 15.5342 7.11438 14.8413 7.51269 14.3857C8.09732 13.7174 8.81913 13.182 9.62793 12.8154C10.4363 12.4491 11.3137 12.2599 12.2012 12.2607ZM12.2012 8.15137C13.5971 8.14985 14.9789 8.4314 16.2627 8.97949C17.5469 9.52775 18.7063 10.3312 19.6709 11.3408C20.089 11.7785 20.0734 12.4725 19.6357 12.8906C19.1982 13.3084 18.505 13.2926 18.0869 12.8555C17.3272 12.0603 16.4138 11.4269 15.4023 10.9951C14.3909 10.5633 13.3019 10.3414 12.2021 10.3428H12.1992C11.0997 10.3415 10.0113 10.5634 9 10.9951C7.98854 11.4269 7.07513 12.0602 6.31543 12.8555C5.89733 13.293 5.20321 13.3087 4.76562 12.8906C4.32804 12.4725 4.3124 11.7784 4.73047 11.3408C5.69502 10.3312 6.85452 9.52778 8.13867 8.97949C9.42208 8.43157 10.8038 8.15005 12.1992 8.15137L12.2012 9.24707V8.15137ZM12.2012 4.04199C16.2025 4.04219 19.8259 5.66936 22.4414 8.2959C22.8684 8.72474 22.8673 9.41864 22.4385 9.8457C22.0096 10.2727 21.3157 10.2715 20.8887 9.84277C18.6675 7.61218 15.5965 6.23347 12.2012 6.2334H12.1992C10.5852 6.23133 8.98664 6.54881 7.49609 7.16797C6.00534 7.78728 4.65126 8.69647 3.51367 9.8418C3.08713 10.2709 2.39317 10.2731 1.96387 9.84668C1.53477 9.42014 1.53257 8.72618 1.95898 8.29687C3.30062 6.94612 4.89713 5.87493 6.65527 5.14453C8.413 4.41435 10.2978 4.03967 12.2012 4.04199Z" fill="#222227"/>
</svg>
