<svg width="16" height="16" viewBox="0 0 16 16" fill="none" xmlns="http://www.w3.org/2000/svg">
<path d="M7.60022 10.3027C8.06641 10.3028 8.44479 10.6803 8.44495 11.1465C8.44495 11.6128 8.0665 11.9911 7.60022 11.9912C7.13385 11.9912 6.75549 11.6129 6.75549 11.1465C6.75565 10.6802 7.13394 10.3027 7.60022 10.3027ZM7.52307 7.55762C8.67497 7.55773 9.7099 8.06616 10.4127 8.86719C10.6585 9.14758 10.6304 9.5743 10.3502 9.82031C10.0698 10.0664 9.64316 10.0383 9.39709 9.75781C8.93972 9.23653 8.26975 8.90918 7.52307 8.90918H7.52209C7.1677 8.90882 6.81755 8.98459 6.49475 9.13086C6.17184 9.2772 5.88344 9.49097 5.65002 9.75781C5.40434 10.0383 4.97761 10.0668 4.6969 9.82129C4.41611 9.57568 4.38789 9.14899 4.63342 8.86816C4.99382 8.45615 5.43855 8.12537 5.93713 7.89941C6.43534 7.67372 6.97613 7.55712 7.52307 7.55762ZM7.52307 5.02441C8.38363 5.02346 9.23552 5.19727 10.027 5.53516C10.8187 5.87317 11.5339 6.36874 12.1285 6.99121C12.386 7.261 12.3758 7.68865 12.1061 7.94629C11.8363 8.20372 11.4086 8.19351 11.151 7.92383C10.6828 7.43388 10.1199 7.04444 9.4967 6.77832C8.87321 6.51214 8.20198 6.37514 7.52405 6.37598H7.52209C6.8442 6.37516 6.17289 6.51215 5.54944 6.77832C4.92623 7.04445 4.36329 7.43388 3.89514 7.92383C3.63749 8.19353 3.20985 8.20378 2.94006 7.94629C2.6704 7.68867 2.6602 7.26101 2.9176 6.99121C3.51226 6.36875 4.22745 5.87317 5.01917 5.53516C5.81033 5.19739 6.66186 5.0236 7.52209 5.02441L7.52307 5.7002V5.02441ZM7.98303 2.50293C10.2669 2.61913 12.3249 3.59619 13.8365 5.11426C14.0994 5.37867 14.0979 5.80622 13.8336 6.06934C13.5692 6.33232 13.1417 6.33166 12.8785 6.06738C11.5093 4.6923 9.61621 3.84277 7.52307 3.84277H7.52209C6.52702 3.8415 5.54161 4.03719 4.62268 4.41895C3.70385 4.80067 2.86977 5.36052 2.16858 6.06641C1.90569 6.33109 1.47725 6.33314 1.21252 6.07031C0.947811 5.80739 0.94667 5.37897 1.20959 5.11426C2.0366 4.28166 3.02041 3.62113 4.10413 3.1709C5.18765 2.72076 6.34977 2.48981 7.52307 2.49121H7.52405L7.98303 2.50293Z" fill="#222227"/>
</svg>
